<svg xmlns="http://www.w3.org/2000/svg" viewBox="0 0 100 100" preserveAspectRatio="xMidYMid" width="203" height="203" style="shape-rendering: auto; display: block; background: rgb(255, 255, 255);" xmlns:xlink="http://www.w3.org/1999/xlink"><g><g transform="rotate(0 50 50)">
  <rect fill="#000000" height="10" width="5" ry="5" rx="2.5" y="27" x="47.5">
    <animate repeatCount="indefinite" begin="-0.6394884092725819s" dur="0.7194244604316546s" keyTimes="0;1" values="1;0" attributeName="opacity"></animate>
  </rect>
</g><g transform="rotate(40 50 50)">
  <rect fill="#f47e60" height="10" width="5" ry="5" rx="2.5" y="27" x="47.5">
    <animate repeatCount="indefinite" begin="-0.5595523581135091s" dur="0.7194244604316546s" keyTimes="0;1" values="1;0" attributeName="opacity"></animate>
  </rect>
</g><g transform="rotate(80 50 50)">
  <rect fill="#f8b26a" height="10" width="5" ry="5" rx="2.5" y="27" x="47.5">
    <animate repeatCount="indefinite" begin="-0.4796163069544364s" dur="0.7194244604316546s" keyTimes="0;1" values="1;0" attributeName="opacity"></animate>
  </rect>
</g><g transform="rotate(120 50 50)">
  <rect fill="#abbd81" height="10" width="5" ry="5" rx="2.5" y="27" x="47.5">
    <animate repeatCount="indefinite" begin="-0.39968025579536365s" dur="0.7194244604316546s" keyTimes="0;1" values="1;0" attributeName="opacity"></animate>
  </rect>
</g><g transform="rotate(160 50 50)">
  <rect fill="#849b87" height="10" width="5" ry="5" rx="2.5" y="27" x="47.5">
    <animate repeatCount="indefinite" begin="-0.31974420463629094s" dur="0.7194244604316546s" keyTimes="0;1" values="1;0" attributeName="opacity"></animate>
  </rect>
</g><g transform="rotate(200 50 50)">
  <rect fill="#6492ac" height="10" width="5" ry="5" rx="2.5" y="27" x="47.5">
    <animate repeatCount="indefinite" begin="-0.2398081534772182s" dur="0.7194244604316546s" keyTimes="0;1" values="1;0" attributeName="opacity"></animate>
  </rect>
</g><g transform="rotate(240 50 50)">
  <rect fill="#637cb5" height="10" width="5" ry="5" rx="2.5" y="27" x="47.5">
    <animate repeatCount="indefinite" begin="-0.15987210231814547s" dur="0.7194244604316546s" keyTimes="0;1" values="1;0" attributeName="opacity"></animate>
  </rect>
</g><g transform="rotate(280 50 50)">
  <rect fill="#6a63b6" height="10" width="5" ry="5" rx="2.5" y="27" x="47.5">
    <animate repeatCount="indefinite" begin="-0.07993605115907274s" dur="0.7194244604316546s" keyTimes="0;1" values="1;0" attributeName="opacity"></animate>
  </rect>
</g><g transform="rotate(320 50 50)">
  <rect fill="#000000" height="10" width="5" ry="5" rx="2.5" y="27" x="47.5">
    <animate repeatCount="indefinite" begin="0s" dur="0.7194244604316546s" keyTimes="0;1" values="1;0" attributeName="opacity"></animate>
  </rect>
</g><g></g></g><!-- [ldio] generated by https://loading.io --></svg>